<svg width="214" height="256" viewBox="0 0 214 256" fill="none" xmlns="http://www.w3.org/2000/svg">
<path d="M106.522 0.5C137.718 0.500106 164.238 13.288 182.951 35.3447C201.659 57.3957 212.544 88.6832 212.544 125.665C212.544 200.543 168.991 255.5 106.522 255.5C44.0536 255.5 0.5 200.543 0.5 125.665C0.500076 88.6832 11.3847 57.3957 30.0928 35.3447C48.806 13.2878 75.3262 0.5 106.522 0.5ZM131.544 45.1133C115.691 28.0411 95.6848 18.3615 72.1182 25.29C49.7584 32.2055 40.4766 52.6072 38.0918 75.6406C35.7079 98.6659 40.2446 124.16 45.3682 140.928C52.1255 163.064 64.1204 188.671 80.3984 206.926C96.673 225.176 117.145 235.999 140.929 228.841C163.028 222.165 171.745 200.397 173.667 176.053C175.587 151.736 170.699 125.069 165.809 109.002V109.001C159.051 86.6325 147.408 62.1975 131.544 45.1133Z" stroke="url(#paint0_linear)"/>
<defs>
<linearGradient id="paint0_linear" x1="107.911" y1="-94.5955" x2="107.911" y2="645.872" gradientUnits="userSpaceOnUse">
<stop stop-color="white" stop-opacity="0"/>
<stop offset="1" stop-color="white"/>
</linearGradient>
</defs>
</svg>
